<?xml version="1.0" encoding="UTF-8"?>
<svg xmlns="http://www.w3.org/2000/svg" viewBox="0 0 954.58 108.45">
  <g>
      <path d="M64.25,65.64h20.38c-.73,9.03-4.69,16-11.86,20.93-7.18,4.93-16.9,7.39-29.18,7.39-13.78,0-24.49-2.92-32.12-8.75C3.82,79.37,0,71.23,0,60.8s3.83-19.11,11.51-25.09c7.67-5.98,18.46-8.97,32.36-8.97,12.69,0,22.64,2.39,29.83,7.18,7.19,4.78,10.93,11.53,11.22,20.24h-20.76c-1.82-7.97-8.58-11.96-20.28-11.96-6.57,0-11.66,1.63-15.26,4.9-3.6,3.27-5.41,7.84-5.41,13.71,0,5.55,1.72,9.88,5.17,12.99,3.44,3.11,8.29,4.66,14.54,4.66,11.93,0,19.04-4.27,21.34-12.82Z"/>
      <path d="M93.96,92.76V14.4h21.96v28.08h1.05c2.65-5.01,6.33-8.85,11.05-11.53,4.72-2.68,10.13-4.02,16.22-4.02,9.44,0,16.81,2.43,22.1,7.3,5.29,4.86,7.94,11.6,7.94,20.21v38.32h-23.01v-32.43c.06-5.8-1.28-10.34-4.04-13.61-2.76-3.27-6.63-4.9-11.6-4.9-4.53,0-8.44.93-11.72,2.8-3.29,1.87-5.66,4.49-7.13,7.87v40.28h-22.82Z"/>
      <path d="M211.93,94.24c-8.36,0-15.02-1.88-20-5.65-4.98-3.76-7.46-8.95-7.46-15.55,0-6.25,2.93-11.14,8.8-14.66,5.87-3.52,14.02-5.29,24.45-5.29h.1c8.26,0,15.34,1.88,21.24,5.65l.19-.29-.57-4.31v-.38c0-3.67-1.98-6.53-5.93-8.59-3.96-2.06-9.2-3.09-15.74-3.09-4.78,0-9.73.63-14.83,1.89-5.1,1.26-9.76,2.99-13.97,5.19v-15.5c4.27-2.2,9.17-3.92,14.69-5.17,5.52-1.24,11.07-1.87,16.65-1.87,13.36,0,23.81,2.3,31.33,6.89,7.53,4.59,11.29,10.97,11.29,19.14l-.1,40.09h-21.72l-.33-7.65.53-3.49-.62-.33c-5.23,8.64-14.56,12.96-27.99,12.96ZM221.69,80.03c4.21,0,7.79-.45,10.74-1.34,2.95-.89,5.06-2.03,6.34-3.4l.57-.96-.29-2.63v-6.08l.29-2.25-.48-.43c-3.76-2.33-9.35-3.49-16.74-3.49-4.43,0-7.96.94-10.57,2.82-2.62,1.88-3.92,4.5-3.92,7.85,0,3.09,1.24,5.52,3.73,7.27,2.49,1.75,5.93,2.63,10.33,2.63Z"/>
      <path d="M314.88,93.53c-20.38,0-30.57-6.08-30.57-18.23v-25.93l.48-5.88-.77-1.1-5.12.72h-11.96v-15.02h11.96l5.41.72,1.2-1.29-.91-13.01,21.67-.1-.53,13.3.81,1,6.36-.62h22.63v15.02h-22.63l-6.36-.62-.81,1,.53,5.88v18.23c-.06,3.89.76,6.72,2.46,8.49,1.71,1.77,4.79,2.66,9.26,2.66,5.1,0,10.56-1.47,16.36-4.4l.53.57v14.83c-5.84,2.52-12.5,3.78-20,3.78Z"/>
      <path d="M363.05,83.96l-10.38,10.38-10.19-10.19,10.38-10.48,10.19,10.29Z"/>
      <path d="M429.5,14.4h21.91v78.36h-22.82v-14.5l1-3.83-.81-.77c-2.74,6.63-6.56,11.72-11.46,15.26-4.9,3.54-10.8,5.31-17.72,5.31-6.54,0-12.28-1.33-17.22-4-4.94-2.66-8.8-6.55-11.58-11.67-2.77-5.12-4.18-11.17-4.21-18.15v-.19c.03-6.92,1.44-12.92,4.21-17.99,2.77-5.07,6.63-8.92,11.58-11.55,4.94-2.63,10.68-3.95,17.22-3.95,13.94,0,23.82,6.39,29.66,19.18l.81-.29-.57-3.16V14.4ZM408.59,78.84c4.75,0,8.88-.94,12.39-2.82,3.51-1.88,6.04-4.53,7.61-7.94v-15.4c-1.56-3.44-4.08-6.08-7.56-7.92-3.48-1.83-7.62-2.75-12.44-2.75-5.87,0-10.5,1.59-13.9,4.76-3.4,3.17-5.09,7.66-5.09,13.47v.19c0,5.74,1.71,10.25,5.12,13.51,3.41,3.27,8.04,4.9,13.87,4.9Z"/>
      <path d="M464.14,92.76V28.08h20.86l.91,11.48-.38,4.02.57.48c5.71-11.61,14.16-17.41,25.35-17.41.77,0,1.94.05,3.52.14s2.46.18,2.66.24v17.51c-.22-.06-.74-.19-1.55-.38-.81-.19-1.32-.31-1.51-.36s-.6-.14-1.22-.26c-.62-.13-1.08-.21-1.36-.24-.29-.03-.69-.08-1.22-.14-.53-.06-1.02-.1-1.48-.12-.46-.02-.98-.02-1.55-.02-4.79,0-9.03,1.18-12.73,3.54-3.7,2.36-6.38,5.36-8.04,8.99v37.22h-22.82Z"/>
      <path d="M532.33,85.35c-7.99-5.93-11.98-14.11-11.98-24.54s3.99-19.05,11.98-25.09c7.99-6.04,19.14-9.07,33.46-9.07s25.59,3.03,33.61,9.09c8.02,6.06,12.03,14.42,12.03,25.07s-4.01,18.61-12.03,24.54c-8.02,5.93-19.22,8.9-33.61,8.9s-25.47-2.97-33.46-8.9ZM582.56,73.91c3.97-3.16,5.96-7.53,5.96-13.11s-1.98-10.4-5.96-13.68c-3.97-3.28-9.56-4.93-16.77-4.93s-12.69,1.64-16.62,4.93c-3.94,3.29-5.91,7.85-5.91,13.68s1.97,9.95,5.91,13.11,9.48,4.74,16.62,4.74,12.8-1.58,16.77-4.74Z"/>
      <path d="M705.34,60.52v.1c-.03,6.92-1.44,12.92-4.21,18.01-2.78,5.09-6.63,8.95-11.58,11.58s-10.68,3.95-17.22,3.95c-13.94,0-23.84-6.41-29.71-19.23l-.77.29.57,3.16v30.09h-21.96V28.08h22.82v14.5l-.96,3.83.77.81c2.74-6.63,6.57-11.72,11.48-15.26,4.91-3.54,10.83-5.31,17.75-5.31,4.88,0,9.35.77,13.42,2.32,4.07,1.55,7.54,3.75,10.43,6.6,2.88,2.85,5.12,6.4,6.72,10.64,1.59,4.24,2.41,8.98,2.44,14.21v.1ZM663.29,78.84c5.87,0,10.5-1.59,13.9-4.76,3.4-3.17,5.09-7.66,5.09-13.47v-.19c0-5.74-1.71-10.25-5.12-13.52-3.41-3.27-8.04-4.9-13.87-4.9-4.75,0-8.88.94-12.39,2.82-3.51,1.88-6.04,4.53-7.61,7.94v15.4c1.56,3.44,4.08,6.08,7.56,7.92,3.47,1.83,7.62,2.75,12.44,2.75Z"/>
      <path d="M765.67,55.83c6.57.99,11.34,2.83,14.3,5.53s4.43,6.56,4.4,11.6c0,4.27-1.52,8.03-4.57,11.27-3.04,3.24-7.32,5.72-12.82,7.44-5.5,1.72-11.82,2.58-18.97,2.58-12.41,0-21.71-1.93-27.91-5.79-6.2-3.86-9.43-9.41-9.69-16.65h20.96c.92,2.33,2.68,4.11,5.26,5.36,2.58,1.24,6.54,1.87,11.86,1.87,4.18,0,7.43-.54,9.76-1.63,2.33-1.08,3.49-2.6,3.49-4.54-.1-3.73-2.46-5.92-7.08-6.55l-25.45-3.83c-5.36-.7-9.66-2.49-12.89-5.36-3.24-2.87-4.86-6.32-4.86-10.33,0-4.31,1.51-7.99,4.52-11.05,3.01-3.06,7.19-5.35,12.53-6.86,5.34-1.51,11.65-2.29,18.92-2.32,5.84-.03,10.92.44,15.24,1.41,4.32.97,7.85,2.43,10.6,4.38,2.74,1.95,4.85,4.27,6.31,6.96,1.47,2.7,2.38,5.84,2.73,9.45h-21.29c-.45-1.44-.89-2.53-1.34-3.28-.45-.75-1.19-1.42-2.22-2.01-1.04-.59-2.35-1-3.95-1.24-1.6-.24-3.78-.41-6.55-.5-8.71-.32-13.06,1.45-13.06,5.31,0,1.31.45,2.38,1.36,3.23.91.85,2.13,1.36,3.66,1.55l26.74,4.02Z"/>
      <path d="M801.16,92.76l-.29-41.05.72-8.23-.72-.67-6.84.48h-7.56v-15.21h35.88l.19,64.68h-21.38ZM807.86,22.01l-11.29-10.76v-.19l11.48-11.05h.19l11.39,10.86v.19l-11.58,10.96h-.19Z"/>
      <path d="M835.27,92.76V14.4h22.44v78.36h-22.44Z"/>
      <path d="M870.43,92.76V14.4h22.63v31.72l-.96,5.12h8.04l27.22-23.15h24.97v2.25l-31.81,24.3-2.39,1.29v.86l2.39,1.2,34.06,32.53v2.25h-25.26l-32.15-33.82-.96-.57-4.11-2.25.96,4.59v32.05h-22.63Z"/>
  </g>
</svg>