<?xml version="1.0" encoding="UTF-8"?>
<svg id="Layer_2" data-name="Layer 2" xmlns="http://www.w3.org/2000/svg" viewBox="0 0 698.87 108.73">
  <g id="Layer_1-2" data-name="Layer 1">
    <g>
      <path d="M70.76,55.58c8.5,1.44,15.23,4.17,20.2,8.2,4.97,4.03,7.43,9.06,7.4,15.09,0,5.89-2.04,11.09-6.13,15.62-4.08,4.53-9.81,8.03-17.17,10.51-7.36,2.48-15.8,3.73-25.33,3.73s-17.83-1.31-25.22-3.92-13.23-6.3-17.5-11.07c-4.27-4.76-6.61-10.26-7.01-16.48h26.11c1.14,3.72,3.95,6.73,8.42,9.02,4.47,2.3,9.78,3.45,15.92,3.45s11.08-1.01,14.82-3.04c3.73-2.02,5.6-4.67,5.6-7.95-.07-2.32-.91-4.25-2.51-5.79-1.6-1.55-4.04-2.56-7.31-3.04l-33.67-5.3c-7.47-.92-13.49-3.45-18.05-7.59-4.56-4.14-6.84-9.15-6.84-15.04,0-5.33,1.97-10.05,5.91-14.16,3.94-4.1,9.51-7.28,16.72-9.52,7.21-2.24,15.51-3.39,24.89-3.42,13.1-.07,23.92,2.75,32.45,8.47,8.54,5.72,13.26,13.29,14.19,22.71h-26c-.81-3.5-3.26-6.36-7.34-8.58-4.08-2.23-8.98-3.43-14.68-3.62-5.56-.18-10.04.52-13.44,2.1-3.4,1.58-5.11,3.75-5.11,6.51,0,1.99.69,3.65,2.07,5,1.38,1.34,3.21,2.16,5.49,2.46l33.12,5.63Z"/>
      <path d="M119.11,107.02l-.33-47.36.83-9.49-.83-.77-7.89.55h-8.72v-17.55h41.4l.22,74.62h-24.67ZM126.84,25.39l-13.03-12.42v-.22L127.06,0h.22l13.14,12.53v.22l-13.36,12.64h-.22Z"/>
      <path d="M158.46,107.02V16.61h25.89v90.41h-25.89Z"/>
      <path d="M199.03,107.02V16.61h26.11v36.59l-1.1,5.91h9.27l31.41-26.71h28.81v2.59l-36.7,28.04-2.76,1.49v.99l2.76,1.38,39.3,37.53v2.59h-29.14l-37.09-39.02-1.1-.66-4.75-2.59,1.1,5.3v36.98h-26.11Z"/>
      <path d="M409.98,71.75c-1.03,11.59-6.24,20.65-15.62,27.18-9.38,6.53-21.78,9.8-37.2,9.8-18.07,0-31.97-4.08-41.7-12.23-9.73-8.15-14.6-19.57-14.6-34.25s4.68-26.8,14.05-35.02c9.36-8.22,23.23-12.34,41.59-12.34,10.08,0,19.04,1.44,26.88,4.31s14.09,7.08,18.77,12.64c4.67,5.56,7.25,12.11,7.73,19.65h-23.84c-1.07-5.37-4.25-9.59-9.55-12.67-5.3-3.07-11.96-4.61-19.98-4.61-10.41,0-18.21,2.44-23.4,7.31-5.19,4.88-7.78,11.78-7.78,20.73s2.78,15.2,8.33,19.98c5.55,4.78,13.39,7.18,23.51,7.18,8.5,0,15.22-1.55,20.17-4.64s7.92-7.43,8.91-13.03h23.73Z"/>
      <path d="M420.14,107.02V16.61h25.33v32.4h1.21c3.05-5.78,7.3-10.21,12.75-13.3,5.45-3.09,11.68-4.64,18.71-4.64,10.89,0,19.39,2.81,25.5,8.42,6.11,5.61,9.16,13.38,9.16,23.32v44.21h-26.55v-37.42c.07-6.7-1.48-11.93-4.66-15.7-3.18-3.77-7.64-5.66-13.38-5.66-5.23,0-9.73,1.08-13.52,3.23-3.79,2.15-6.53,5.18-8.22,9.08v46.47h-26.33Z"/>
      <path d="M556.25,108.73c-9.64,0-17.33-2.17-23.07-6.51s-8.61-10.32-8.61-17.94c0-7.21,3.38-12.85,10.16-16.92,6.77-4.07,16.17-6.1,28.2-6.1h.11c9.53,0,17.7,2.17,24.51,6.51l.22-.33-.66-4.97v-.44c0-4.23-2.28-7.53-6.84-9.91-4.56-2.37-10.62-3.56-18.16-3.56-5.52,0-11.22.73-17.11,2.18-5.89,1.45-11.26,3.45-16.12,5.99v-17.88c4.93-2.54,10.58-4.53,16.95-5.96,6.37-1.44,12.77-2.15,19.21-2.15,15.42,0,27.47,2.65,36.15,7.95,8.68,5.3,13.03,12.66,13.03,22.08l-.11,46.25h-25.06l-.39-8.83.61-4.03-.72-.39c-6.04,9.97-16.8,14.96-32.29,14.96ZM567.51,92.34c4.86,0,8.99-.51,12.39-1.55,3.4-1.03,5.84-2.34,7.31-3.92l.66-1.1-.33-3.04v-7.01l.33-2.59-.55-.5c-4.34-2.69-10.78-4.03-19.32-4.03-5.12,0-9.18,1.09-12.2,3.26s-4.53,5.19-4.53,9.05c0,3.57,1.43,6.37,4.3,8.39,2.87,2.02,6.84,3.04,11.92,3.04Z"/>
      <path d="M675.02,107.9c-23.51,0-35.27-7.01-35.27-21.03v-29.92l.55-6.79-.88-1.27-5.91.83h-13.8v-17.33h13.8l6.24.83,1.38-1.49-1.05-15.01,25-.11-.61,15.34.94,1.16,7.34-.72h26.11v17.33h-26.11l-7.34-.72-.94,1.16.61,6.79v21.03c-.07,4.49.87,7.75,2.84,9.8s5.53,3.06,10.68,3.06c5.89,0,12.18-1.69,18.88-5.08l.61.66v17.11c-6.73,2.91-14.42,4.36-23.07,4.36Z"/>
    </g>
  </g>
</svg>